<svg width="1422" height="800" viewBox="0 0 1422 800" fill="none" xmlns="http://www.w3.org/2000/svg">
<g clip-path="url(#clip0_2002_1704)">
<rect width="1422" height="800" fill="white"/>
<g clip-path="url(#clip1_2002_1704)">
<path opacity="0.29" d="M0 3399C237 1233 474 233.333 711 400C948 566.667 1185 1566.33 1422 3399" stroke="#000" stroke-width="1.5px" stroke-linecap="round"/>
<path opacity="0.29" d="M0 3366C237 1222 474 233.333 711 400C948 566.667 1185 1555.33 1422 3366" stroke="#000" stroke-width="1.5px" stroke-linecap="round"/>
<path opacity="0.29" d="M0 3333C237 1211 474 233.333 711 400C948 566.667 1185 1544.33 1422 3333" stroke="#000" stroke-width="1.5px" stroke-linecap="round"/>
<path opacity="0.29" d="M0 3300C237 1200 474 233.333 711 400C948 566.667 1185 1533.33 1422 3300" stroke="#000" stroke-width="1.5px" stroke-linecap="round"/>
<path opacity="0.29" d="M0 3267C237 1189 474 233.333 711 400C948 566.667 1185 1522.33 1422 3267" stroke="#000" stroke-width="1.5px" stroke-linecap="round"/>
<path opacity="0.29" d="M0 3234C237 1178 474 233.333 711 400C948 566.667 1185 1511.33 1422 3234" stroke="#000" stroke-width="1.5px" stroke-linecap="round"/>
<path opacity="0.29" d="M0 3201C237 1167 474 233.333 711 400C948 566.667 1185 1500.33 1422 3201" stroke="#000" stroke-width="1.5px" stroke-linecap="round"/>
<path opacity="0.29" d="M0 3168C237 1156 474 233.333 711 400C948 566.667 1185 1489.33 1422 3168" stroke="#000" stroke-width="1.5px" stroke-linecap="round"/>
<path opacity="0.29" d="M0 3135C237 1145 474 233.333 711 400C948 566.667 1185 1478.33 1422 3135" stroke="#000" stroke-width="1.5px" stroke-linecap="round"/>
<path opacity="0.29" d="M0 3102C237 1134 474 233.333 711 400C948 566.667 1185 1467.33 1422 3102" stroke="#000" stroke-width="1.5px" stroke-linecap="round"/>
<path opacity="0.29" d="M0 3069C237 1123 474 233.333 711 400C948 566.667 1185 1456.33 1422 3069" stroke="#000" stroke-width="1.5px" stroke-linecap="round"/>
<path opacity="0.29" d="M0 3036C237 1112 474 233.333 711 400C948 566.667 1185 1445.33 1422 3036" stroke="#000" stroke-width="1.5px" stroke-linecap="round"/>
<path opacity="0.29" d="M0 3003C237 1101 474 233.333 711 400C948 566.667 1185 1434.33 1422 3003" stroke="#000" stroke-width="1.5px" stroke-linecap="round"/>
<path opacity="0.29" d="M0 2970C237 1090 474 233.333 711 400C948 566.667 1185 1423.33 1422 2970" stroke="#000" stroke-width="1.5px" stroke-linecap="round"/>
<path opacity="0.29" d="M0 2937C237 1079 474 233.333 711 400C948 566.667 1185 1412.33 1422 2937" stroke="#000" stroke-width="1.5px" stroke-linecap="round"/>
<path opacity="0.29" d="M0 2904C237 1068 474 233.333 711 400C948 566.667 1185 1401.33 1422 2904" stroke="#000" stroke-width="1.5px" stroke-linecap="round"/>
<path opacity="0.29" d="M0 2871C237 1057 474 233.333 711 400C948 566.667 1185 1390.33 1422 2871" stroke="#000" stroke-width="1.5px" stroke-linecap="round"/>
<path opacity="0.29" d="M0 2838C237 1046 474 233.333 711 400C948 566.667 1185 1379.33 1422 2838" stroke="#000" stroke-width="1.5px" stroke-linecap="round"/>
<path opacity="0.29" d="M0 2805C237 1035 474 233.333 711 400C948 566.667 1185 1368.33 1422 2805" stroke="#000" stroke-width="1.5px" stroke-linecap="round"/>
<path opacity="0.29" d="M0 2772C237 1024 474 233.333 711 400C948 566.667 1185 1357.33 1422 2772" stroke="#000" stroke-width="1.5px" stroke-linecap="round"/>
<path opacity="0.29" d="M0 2739C237 1013 474 233.333 711 400C948 566.667 1185 1346.33 1422 2739" stroke="#000" stroke-width="1.5px" stroke-linecap="round"/>
<path opacity="0.29" d="M0 2706C237 1002 474 233.333 711 400C948 566.667 1185 1335.33 1422 2706" stroke="#000" stroke-width="1.5px" stroke-linecap="round"/>
<path opacity="0.29" d="M0 2673C237 991 474 233.333 711 400C948 566.667 1185 1324.33 1422 2673" stroke="#000" stroke-width="1.5px" stroke-linecap="round"/>
<path opacity="0.29" d="M0 2640C237 980 474 233.333 711 400C948 566.667 1185 1313.33 1422 2640" stroke="#000" stroke-width="1.5px" stroke-linecap="round"/>
<path opacity="0.29" d="M0 2607C237 969 474 233.333 711 400C948 566.667 1185 1302.33 1422 2607" stroke="#000" stroke-width="1.5px" stroke-linecap="round"/>
<path opacity="0.29" d="M0 2574C237 958 474 233.333 711 400C948 566.667 1185 1291.33 1422 2574" stroke="#000" stroke-width="1.5px" stroke-linecap="round"/>
<path opacity="0.29" d="M0 2541C237 947 474 233.333 711 400C948 566.667 1185 1280.33 1422 2541" stroke="#000" stroke-width="1.5px" stroke-linecap="round"/>
<path opacity="0.29" d="M0 2508C237 936 474 233.333 711 400C948 566.667 1185 1269.33 1422 2508" stroke="#000" stroke-width="1.5px" stroke-linecap="round"/>
<path opacity="0.29" d="M0 2475C237 925 474 233.333 711 400C948 566.667 1185 1258.33 1422 2475" stroke="#000" stroke-width="1.5px" stroke-linecap="round"/>
<path opacity="0.29" d="M0 2442C237 914 474 233.333 711 400C948 566.667 1185 1247.33 1422 2442" stroke="#000" stroke-width="1.5px" stroke-linecap="round"/>
<path opacity="0.29" d="M0 2409C237 903 474 233.333 711 400C948 566.667 1185 1236.33 1422 2409" stroke="#000" stroke-width="1.5px" stroke-linecap="round"/>
<path opacity="0.29" d="M0 2376C237 892 474 233.333 711 400C948 566.667 1185 1225.33 1422 2376" stroke="#000" stroke-width="1.5px" stroke-linecap="round"/>
<path opacity="0.29" d="M0 2343C237 881 474 233.333 711 400C948 566.667 1185 1214.33 1422 2343" stroke="#000" stroke-width="1.5px" stroke-linecap="round"/>
<path opacity="0.29" d="M0 2310C237 870 474 233.333 711 400C948 566.667 1185 1203.33 1422 2310" stroke="#000" stroke-width="1.5px" stroke-linecap="round"/>
<path opacity="0.29" d="M0 2277C237 859 474 233.333 711 400C948 566.667 1185 1192.33 1422 2277" stroke="#000" stroke-width="1.5px" stroke-linecap="round"/>
<path opacity="0.29" d="M0 2244C237 848 474 233.333 711 400C948 566.667 1185 1181.33 1422 2244" stroke="#000" stroke-width="1.5px" stroke-linecap="round"/>
<path opacity="0.29" d="M0 2211C237 837 474 233.333 711 400C948 566.667 1185 1170.33 1422 2211" stroke="#000" stroke-width="1.5px" stroke-linecap="round"/>
<path opacity="0.29" d="M0 2178C237 826 474 233.333 711 400C948 566.667 1185 1159.33 1422 2178" stroke="#000" stroke-width="1.5px" stroke-linecap="round"/>
<path opacity="0.29" d="M0 2145C237 815 474 233.333 711 400C948 566.667 1185 1148.33 1422 2145" stroke="#000" stroke-width="1.5px" stroke-linecap="round"/>
<path opacity="0.29" d="M0 2112C237 804 474 233.333 711 400C948 566.667 1185 1137.33 1422 2112" stroke="#000" stroke-width="1.5px" stroke-linecap="round"/>
<path opacity="0.29" d="M0 2079C237 793 474 233.333 711 400C948 566.667 1185 1126.33 1422 2079" stroke="#000" stroke-width="1.5px" stroke-linecap="round"/>
<path opacity="0.29" d="M0 2046C237 782 474 233.333 711 400C948 566.667 1185 1115.33 1422 2046" stroke="#000" stroke-width="1.5px" stroke-linecap="round"/>
<path opacity="0.29" d="M0 2013C237 771 474 233.333 711 400C948 566.667 1185 1104.33 1422 2013" stroke="#000" stroke-width="1.5px" stroke-linecap="round"/>
<path opacity="0.29" d="M0 1980C237 760 474 233.333 711 400C948 566.667 1185 1093.33 1422 1980" stroke="#000" stroke-width="1.5px" stroke-linecap="round"/>
<path opacity="0.29" d="M0 1947C237 749 474 233.333 711 400C948 566.667 1185 1082.33 1422 1947" stroke="#000" stroke-width="1.5px" stroke-linecap="round"/>
<path opacity="0.29" d="M0 1914C237 738 474 233.333 711 400C948 566.667 1185 1071.33 1422 1914" stroke="#000" stroke-width="1.5px" stroke-linecap="round"/>
<path opacity="0.29" d="M0 1881C237 727 474 233.333 711 400C948 566.667 1185 1060.33 1422 1881" stroke="#000" stroke-width="1.5px" stroke-linecap="round"/>
<path opacity="0.29" d="M0 1848C237 716 474 233.333 711 400C948 566.667 1185 1049.33 1422 1848" stroke="#000" stroke-width="1.5px" stroke-linecap="round"/>
<path opacity="0.29" d="M0 1815C237 705 474 233.333 711 400C948 566.667 1185 1038.33 1422 1815" stroke="#000" stroke-width="1.5px" stroke-linecap="round"/>
<path opacity="0.29" d="M0 1782C237 694 474 233.333 711 400C948 566.667 1185 1027.33 1422 1782" stroke="#000" stroke-width="1.5px" stroke-linecap="round"/>
<path opacity="0.29" d="M0 1749C237 683 474 233.333 711 400C948 566.667 1185 1016.33 1422 1749" stroke="#000" stroke-width="1.5px" stroke-linecap="round"/>
<path opacity="0.29" d="M0 1716C237 672 474 233.333 711 400C948 566.667 1185 1005.33 1422 1716" stroke="#000" stroke-width="1.5px" stroke-linecap="round"/>
<path opacity="0.29" d="M0 1683C237 661 474 233.333 711 400C948 566.667 1185 994.333 1422 1683" stroke="#000" stroke-width="1.5px" stroke-linecap="round"/>
<path opacity="0.29" d="M0 1650C237 650 474 233.333 711 400C948 566.667 1185 983.333 1422 1650" stroke="#000" stroke-width="1.5px" stroke-linecap="round"/>
<path opacity="0.29" d="M0 1617C237 639 474 233.333 711 400C948 566.667 1185 972.333 1422 1617" stroke="#000" stroke-width="1.5px" stroke-linecap="round"/>
<path opacity="0.29" d="M0 1584C237 628 474 233.333 711 400C948 566.667 1185 961.333 1422 1584" stroke="#000" stroke-width="1.5px" stroke-linecap="round"/>
<path opacity="0.29" d="M0 1551C237 617 474 233.333 711 400C948 566.667 1185 950.333 1422 1551" stroke="#000" stroke-width="1.5px" stroke-linecap="round"/>
<path opacity="0.29" d="M0 1518C237 606 474 233.333 711 400C948 566.667 1185 939.333 1422 1518" stroke="#000" stroke-width="1.5px" stroke-linecap="round"/>
<path opacity="0.29" d="M0 1485C237 595 474 233.333 711 400C948 566.667 1185 928.333 1422 1485" stroke="#000" stroke-width="1.5px" stroke-linecap="round"/>
<path opacity="0.29" d="M0 1452C237 584 474 233.333 711 400C948 566.667 1185 917.333 1422 1452" stroke="#000" stroke-width="1.5px" stroke-linecap="round"/>
<path opacity="0.29" d="M0 1419C237 573 474 233.333 711 400C948 566.667 1185 906.333 1422 1419" stroke="#000" stroke-width="1.5px" stroke-linecap="round"/>
<path opacity="0.29" d="M0 1386C237 562 474 233.333 711 400C948 566.667 1185 895.333 1422 1386" stroke="#000" stroke-width="1.5px" stroke-linecap="round"/>
<path opacity="0.29" d="M0 1353C237 551 474 233.333 711 400C948 566.667 1185 884.333 1422 1353" stroke="#000" stroke-width="1.5px" stroke-linecap="round"/>
<path opacity="0.29" d="M0 1320C237 540 474 233.333 711 400C948 566.667 1185 873.333 1422 1320" stroke="#000" stroke-width="1.5px" stroke-linecap="round"/>
<path opacity="0.29" d="M0 1287C237 529 474 233.333 711 400C948 566.667 1185 862.333 1422 1287" stroke="#000" stroke-width="1.5px" stroke-linecap="round"/>
<path opacity="0.29" d="M0 1254C237 518 474 233.333 711 400C948 566.667 1185 851.333 1422 1254" stroke="#000" stroke-width="1.5px" stroke-linecap="round"/>
<path opacity="0.29" d="M0 1221C237 507 474 233.333 711 400C948 566.667 1185 840.333 1422 1221" stroke="#000" stroke-width="1.5px" stroke-linecap="round"/>
<path opacity="0.29" d="M0 1188C237 496 474 233.333 711 400C948 566.667 1185 829.333 1422 1188" stroke="#000" stroke-width="1.5px" stroke-linecap="round"/>
<path opacity="0.29" d="M0 1155C237 485 474 233.333 711 400C948 566.667 1185 818.333 1422 1155" stroke="#000" stroke-width="1.5px" stroke-linecap="round"/>
<path opacity="0.29" d="M0 1122C237 474 474 233.333 711 400C948 566.667 1185 807.333 1422 1122" stroke="#000" stroke-width="1.5px" stroke-linecap="round"/>
<path opacity="0.29" d="M0 1089C237 463 474 233.333 711 400C948 566.667 1185 796.333 1422 1089" stroke="#000" stroke-width="1.5px" stroke-linecap="round"/>
<path opacity="0.29" d="M0 1056C237 452 474 233.333 711 400C948 566.667 1185 785.333 1422 1056" stroke="#000" stroke-width="1.5px" stroke-linecap="round"/>
<path opacity="0.29" d="M0 1023C237 441 474 233.333 711 400C948 566.667 1185 774.333 1422 1023" stroke="#000" stroke-width="1.5px" stroke-linecap="round"/>
<path opacity="0.29" d="M0 990C237 430 474 233.333 711 400C948 566.667 1185 763.333 1422 990" stroke="#000" stroke-width="1.5px" stroke-linecap="round"/>
<path opacity="0.29" d="M0 957C237 419 474 233.333 711 400C948 566.667 1185 752.333 1422 957" stroke="#000" stroke-width="1.5px" stroke-linecap="round"/>
<path opacity="0.29" d="M0 924C237 408 474 233.333 711 400C948 566.667 1185 741.333 1422 924" stroke="#000" stroke-width="1.5px" stroke-linecap="round"/>
<path opacity="0.29" d="M0 891C237 397 474 233.333 711 400C948 566.667 1185 730.333 1422 891" stroke="#000" stroke-width="1.5px" stroke-linecap="round"/>
<path opacity="0.29" d="M0 858C237 386 474 233.333 711 400C948 566.667 1185 719.333 1422 858" stroke="#000" stroke-width="1.5px" stroke-linecap="round"/>
<path opacity="0.29" d="M0 825C237 375 474 233.333 711 400C948 566.667 1185 708.333 1422 825" stroke="#000" stroke-width="1.5px" stroke-linecap="round"/>
<path opacity="0.29" d="M0 792C237 364 474 233.333 711 400C948 566.667 1185 697.333 1422 792" stroke="#000" stroke-width="1.5px" stroke-linecap="round"/>
<path opacity="0.29" d="M0 759C237 353 474 233.333 711 400C948 566.667 1185 686.333 1422 759" stroke="#000" stroke-width="1.5px" stroke-linecap="round"/>
<path opacity="0.29" d="M0 726C237 342 474 233.333 711 400C948 566.667 1185 675.333 1422 726" stroke="#000" stroke-width="1.5px" stroke-linecap="round"/>
<path opacity="0.29" d="M0 693C237 331 474 233.333 711 400C948 566.667 1185 664.333 1422 693" stroke="#000" stroke-width="1.5px" stroke-linecap="round"/>
<path opacity="0.29" d="M0 660C237 320 474 233.333 711 400C948 566.667 1185 653.333 1422 660" stroke="#000" stroke-width="1.5px" stroke-linecap="round"/>
<path opacity="0.29" d="M0 627C237 309 474 233.333 711 400C948 566.667 1185 642.333 1422 627" stroke="#000" stroke-width="1.5px" stroke-linecap="round"/>
<path opacity="0.29" d="M0 594C237 298 474 233.333 711 400C948 566.667 1185 631.333 1422 594" stroke="#000" stroke-width="1.5px" stroke-linecap="round"/>
<path opacity="0.29" d="M0 561C237 287 474 233.333 711 400C948 566.667 1185 620.333 1422 561" stroke="#000" stroke-width="1.5px" stroke-linecap="round"/>
<path opacity="0.29" d="M0 528C237 276 474 233.333 711 400C948 566.667 1185 609.333 1422 528" stroke="#000" stroke-width="1.5px" stroke-linecap="round"/>
<path opacity="0.29" d="M0 495C237 265 474 233.333 711 400C948 566.667 1185 598.333 1422 495" stroke="#000" stroke-width="1.5px" stroke-linecap="round"/>
<path opacity="0.29" d="M0 462C237 254 474 233.333 711 400C948 566.667 1185 587.333 1422 462" stroke="#000" stroke-width="1.5px" stroke-linecap="round"/>
<path opacity="0.29" d="M0 429C237 243 474 233.333 711 400C948 566.667 1185 576.333 1422 429" stroke="#000" stroke-width="1.5px" stroke-linecap="round"/>
<path opacity="0.29" d="M0 396C237 232 474 233.333 711 400C948 566.667 1185 565.333 1422 396" stroke="#000" stroke-width="1.5px" stroke-linecap="round"/>
<path opacity="0.29" d="M0 363C237 221 474 233.333 711 400C948 566.667 1185 554.333 1422 363" stroke="#000" stroke-width="1.5px" stroke-linecap="round"/>
<path opacity="0.29" d="M0 330C237 210 474 233.333 711 400C948 566.667 1185 543.333 1422 330" stroke="#000" stroke-width="1.5px" stroke-linecap="round"/>
<path opacity="0.29" d="M0 297C237 199 474 233.333 711 400C948 566.667 1185 532.333 1422 297" stroke="#000" stroke-width="1.5px" stroke-linecap="round"/>
<path opacity="0.29" d="M0 264C237 188 474 233.333 711 400C948 566.667 1185 521.333 1422 264" stroke="#000" stroke-width="1.5px" stroke-linecap="round"/>
<path opacity="0.29" d="M0 231C237 177 474 233.333 711 400C948 566.667 1185 510.333 1422 231" stroke="#000" stroke-width="1.5px" stroke-linecap="round"/>
<path opacity="0.29" d="M0 198C237 166 474 233.333 711 400C948 566.667 1185 499.333 1422 198" stroke="#000" stroke-width="1.5px" stroke-linecap="round"/>
<path opacity="0.29" d="M0 165C237 155 474 233.333 711 400C948 566.667 1185 488.333 1422 165" stroke="#000" stroke-width="1.5px" stroke-linecap="round"/>
</g>
</g>

</svg>
