<svg width="84" height="84" viewBox="0 0 84 84" fill="none" xmlns="http://www.w3.org/2000/svg">
<path d="M43.6243 58.4758V51.9785C44.0304 52.4335 44.8751 53.682 45.005 55.036C45.135 56.3901 44.1387 57.8934 43.6243 58.4758Z" fill="black"/>
<path d="M75.3373 17.8428C75.3368 19.123 73.3257 24.2104 72.475 25.4229C71.6243 26.6351 70.8508 26.8662 70.5414 27.124C71.0571 27.4076 72.1971 28.3154 72.6303 29.6768C73.1717 31.3784 73.9443 33.9311 74.099 34.5498C73.9747 34.796 73.2739 34.0334 72.9389 33.6211C73.2225 34.2914 73.8515 35.9106 74.099 37.0244C74.4084 38.4166 74.7185 40.4276 74.1772 39.6543C73.6358 38.8809 73.326 39.113 73.6352 39.6543C73.9446 40.1957 74.5639 41.2792 74.5639 42.8262V45.4551C74.5639 45.6098 73.4031 43.9084 73.2484 43.8311C73.0943 43.7548 73.4804 44.7604 73.7123 46.9248C73.9443 49.0903 74.0222 50.6376 73.8676 51.4111C73.7129 52.1846 73.2488 50.663 72.7074 49.7871C72.3576 49.2212 71.934 48.5996 71.934 50.5078C71.934 52.4162 70.3873 56.3854 69.6137 55.5361C68.8403 54.6854 68.2673 54.6496 68.7621 56.1543C69.3809 58.0356 67.0611 63.2703 67.0609 60.6934C67.0609 57.8568 65.1272 57.1603 65.3588 58.0107C65.5908 58.8616 65.669 59.4809 65.0502 62.9365C64.4315 66.392 64.3539 67.8093 63.9672 68.6602C63.7352 68.9695 63.5799 66.7266 63.0385 66.3398C63.0383 67.4228 62.1877 70.0519 60.641 71.1348C60.4094 70.902 61.4919 68.2727 60.9506 66.5713C60.6412 67.9635 59.558 69.8201 58.0111 71.8311C56.7739 73.4395 55.1242 74.8213 54.4535 75.3115C54.7119 74.3058 56.7116 72.1097 56.4643 71.3672C56.2322 72.3727 52.7513 74.8476 50.8949 76.3945C49.4098 77.6321 48.5743 78.9726 47.5688 79.4883C47.9297 78.2506 48.6059 75.6054 48.4203 74.9248C48.1881 74.3843 46.7959 78.1217 46.5639 78.4834C46.3318 78.8451 45.2486 81.6792 43.6244 83.9746V60.1514L44.0883 60.6934C44.2945 60.0231 44.8311 58.3516 45.9447 56.6191C47.3368 54.4537 44.8625 52.1332 44.8617 51.8232C44.8617 51.5139 48.7275 54.1946 49.0385 54.4277C49.3477 54.6596 49.271 52.8831 49.2709 52.7266C49.2709 52.5719 50.2763 53.5773 51.2045 54.2734C52.1327 54.9695 53.6791 55.3561 53.6791 55.124C53.679 54.9382 53.3186 53.6025 53.1381 52.958C53.628 53.3447 54.7472 54.1497 55.3041 54.2734C56.0004 54.4282 57.5473 54.7375 58.3207 54.6602C59.0939 54.5829 59.8672 54.5825 59.7904 54.2734C59.7286 54.0259 59.1453 53.2932 58.8617 52.958C59.3 53.1643 60.2698 53.5771 60.641 53.5771C61.105 53.5772 61.4912 53.8088 61.2592 52.958C61.0275 52.1078 61.6466 52.7266 62.5746 52.7266C63.5027 52.7266 64.5853 52.9582 65.3588 52.417C66.1323 51.8756 66.5965 51.2563 66.4418 50.7148C66.2871 50.1737 66.0555 49.7872 66.8285 49.7871C67.602 49.7871 68.9174 49.0133 68.9174 48.3945C68.9173 47.7758 68.7624 47.0797 68.2211 46.8477C67.6797 46.6156 69.459 46.6158 69.6137 45.6104C69.7684 44.6048 69.2264 44.1408 69.0717 44.0635C68.9174 43.9861 70.7727 43.5992 70.6186 42.4395C70.4948 41.5113 69.7936 40.8664 69.4584 40.6602C69.9998 40.3765 71.0672 39.5613 71.0053 38.5713C70.9433 37.5817 70.1034 37.2314 69.6908 37.1797C70.1549 36.9476 71.0051 36.2667 70.6957 35.4004C70.3863 34.5341 69.5356 34.266 69.1488 34.2402C69.484 34.1371 70.1077 33.6679 69.9223 32.6162C69.7367 31.5647 68.8662 31.3523 68.4535 31.3779C68.7629 31.1199 69.2569 30.4649 68.7621 29.9082C68.2668 29.3514 66.9575 28.8 66.3647 28.5938C67.5507 28.0523 70.2631 26.3349 71.6244 23.7979C73.3257 20.6273 73.79 19.6217 74.4086 19.0029C74.9034 18.5081 75.234 18.0234 75.3373 17.8428Z" fill="black"/>
<path d="M43.6243 33.0027V9.25684C44.2431 10.5194 46.0685 10.8038 46.5635 10.8038C48.9355 10.7697 54.716 11.2634 58.8619 13.511C58.8619 13.511 60.7182 14.4142 61.2597 14.7485C61.8011 15.0829 64.3278 17.0948 65.3591 18.0745L61.569 21.2458C62.9355 20.5239 66.1326 18.8171 67.9889 17.7651C69.8453 16.7132 73.7127 13.511 75.4144 12.0414C74.4862 14.0524 71.8409 18.7088 68.6851 21.2458C64.7403 24.4171 59.9447 25.1132 57.7016 26.1961C55.9072 27.0624 54.4788 28.2587 53.9889 28.7485C54.0147 28.6196 54.1746 28.1762 54.6077 27.4336C55.1492 26.5055 54.5304 26.4281 53.6022 26.5828C48.2807 27.8822 44.733 31.4042 43.6243 33.0027Z" fill="black"/>
<path d="M43.6243 47.6989V35.1685C44.1194 33.8691 45.1713 32.5644 45.6354 32.0745V33.1574C46.0685 31.6724 47.93 30.2182 48.8066 29.6768L48.0332 31.6105C48.6262 30.9659 50.168 29.4138 51.5912 28.3619C53.0144 27.3099 54.6593 26.7891 55.3039 26.6602C54.6851 27.5368 53.5558 29.1817 53.989 28.7486C54.5304 28.2072 60.3315 26.5828 62.1879 25.8867C64.0442 25.1906 65.4365 24.2624 65.2044 24.7265C63.6575 25.3871 61.7238 27.5285 60.9503 28.5165C61.7547 28.0834 64.0184 27.872 65.0497 27.8204C64.7661 27.8977 63.9359 28.1453 62.884 28.5165C61.5691 28.9806 57.9337 30.1408 54.2984 32.2292C50.663 34.3176 48.1879 37.7983 47.4144 38.8038C46.7491 39.6687 46.1982 41.621 46.1064 41.9532C46.2161 41.6543 47.2217 40.3074 47.7238 39.6547C47.7496 39.7578 47.8475 40.227 48.0332 41.279C48.2188 42.3309 49.2965 43.7799 49.8122 44.3729C49.7606 44.1666 49.5801 43.5994 49.2707 42.9806C48.884 42.2071 48.7293 39.8093 48.9613 40.7375C49.1934 41.6657 50.0442 42.5165 51.0497 43.4447C52.0553 44.3729 57.2376 45.069 59.4807 42.8259C61.7238 40.5828 61.8785 38.7265 61.7238 36.406C61.6 34.5497 59.7127 32.7449 58.7845 32.0745C58.2895 31.7451 58.372 31.4732 58.4752 31.3784C59.0939 30.9917 60.61 30.1099 61.7238 29.6768C63.116 29.1354 65.0497 29.5221 66.1326 30.2182C66.9989 30.7751 65.8748 31.1206 65.2044 31.2237C65.7459 31.4816 66.968 32.1674 67.5249 32.8481C68.0818 33.5287 67.035 33.8536 66.442 33.9309C66.8545 34.1372 67.7724 34.7663 68.1437 35.6326C68.5149 36.4989 67.4217 36.767 66.8287 36.7928C67.3702 37.0764 68.5304 37.8138 68.8398 38.4945C69.1492 39.1751 68.1952 39.6547 67.6796 39.8094C67.7569 39.9899 67.8652 40.4436 67.6796 40.8149C67.4939 41.1862 66.4678 41.5884 65.9779 41.7431C66.6483 41.6915 68.0044 41.6348 68.0663 41.8204C68.1437 42.0525 67.6022 42.826 66.8287 44.0635C66.0553 45.3011 64.0442 45.069 63.7348 45.069C63.4254 45.069 63.5801 45.3011 64.0442 45.6105C64.9724 46.1055 65.8748 46.1261 66.21 46.0746C66.1584 46.2035 65.916 46.6005 65.3591 47.1574C64.663 47.8536 63.3481 47.7762 62.3426 47.6215C61.337 47.4668 61.8785 48.0856 62.4973 48.5497C63.116 49.0138 63.6575 49.0138 63.5028 49.1685C63.3481 49.3232 62.4199 50.0193 61.337 50.2514C60.4707 50.437 59.1713 50.1225 58.6299 49.942C59.0166 50.7155 60.3315 51.4116 60.3315 51.4116C59.6096 51.5147 57.9182 51.7055 56.9282 51.6436C55.6906 51.5663 54.4531 50.4834 54.1437 50.4061C53.8961 50.3442 54.9171 51.6178 55.4586 52.2624C55.0203 52.1335 53.9116 51.7519 52.9834 51.2569C51.8232 50.6381 51.0497 49.0138 50.8177 48.7818C50.5857 48.5497 50.663 49.7873 50.8177 50.6381C50.9415 51.3188 51.4365 52.3655 51.6685 52.8039C51.2044 52.5202 50.1216 51.7983 49.5028 51.1795C48.884 50.5608 48.2652 50.6123 48.0332 49.942V52.2624C48.0074 52.2109 47.7702 51.9221 47.0276 51.1795C46.0995 50.2514 46.0995 48.7818 45.9448 48.395C45.7901 48.0083 45.7127 50.4061 45.1713 50.174C44.6299 49.942 44.0111 47.6989 44.0111 47.2348C44.0111 46.8635 43.7532 47.3895 43.6243 47.6989Z" fill="black"/>
<path d="M49.6575 37.876C49.7348 36.4314 54.0663 32.3315 56.4641 32.7705C58.8619 33.2096 61.5687 35.633 60.0217 39.7324C58.4747 43.8315 54.2206 43.3676 52.4417 42.4395C50.6628 41.5112 49.5802 39.3205 49.6575 37.876ZM54.9172 35.4004C53.7212 35.4004 52.7513 36.3704 52.7512 37.5664C52.7512 38.7625 53.7211 39.7324 54.9172 39.7324C56.1133 39.7324 57.0833 38.7625 57.0833 37.5664C57.0832 36.3704 56.1132 35.4005 54.9172 35.4004Z" fill="black"/>
<path d="M41.9227 83.9751V65.4115C41.9227 65.4115 39.7569 65.2568 38.5967 64.638C37.4365 64.0193 36.7404 62.3176 36.7404 62.3176C36.7404 62.3176 34.7293 61.4668 33.8011 60.5386C32.873 59.6104 32.5636 58.5526 32.3315 57.315C32.0995 56.0774 32.5636 54.9445 32.4862 54.0414C32.4089 53.1382 32.1768 51.4115 30.3205 49.7872C28.4641 48.1629 26.2984 47.8535 24.8288 47.8535C23.3591 47.8535 20.4199 48.0082 16.6299 50.7154C12.8398 53.4226 12.6078 59.094 12.6078 59.094C12.6078 59.094 14 57.3673 17.1713 56.2071C20.3426 55.0469 24.5194 56.2071 24.5194 56.2071C24.5194 56.2071 21.6575 56.0001 19.8785 56.5415C18.0995 57.0829 16.6299 58.6822 16.6299 58.6822C16.6299 58.6822 16.3205 61.9309 17.7127 64.7154C19.105 67.4999 22.663 70.4392 22.663 70.4392C22.663 70.4392 22.431 69.4336 22.431 68.5828V66.7264C22.431 66.7264 23.9006 68.6601 24.442 69.2789C24.9834 69.8977 26.4531 71.0329 26.8398 71.5994C27.2265 72.1658 28.3868 73.5331 28.3868 73.5331C28.6962 73.9972 32.6409 77.4005 32.6409 77.4005C32.6409 77.4005 32.6409 76.4723 32.7183 75.8535C32.7956 75.2347 33.105 74.6159 33.105 74.6159C33.105 74.6159 34.8067 77.5552 36.663 79.3342C38.5194 81.1132 41.9227 83.9751 41.9227 83.9751Z" fill="black"/>
<path d="M37.9779 62.3176L41.9227 61.8535V64.4833C40.0044 64.4833 38.442 63.0395 37.9779 62.3176Z" fill="black"/>
<path d="M13.7683 0.0517578C14.5426 -0.334096 18.2536 1.52164 19.3367 2.21777C20.4195 2.91389 23.8235 5.54375 25.5251 7.16797C27.2265 8.79197 29.7784 11.9626 30.1658 12.582C30.1917 12.2943 30.352 11.6914 30.7849 11.5771C31.0953 11.345 34.8838 11.0355 36.74 10.958C38.5962 10.8806 40.9943 10.3645 41.9226 9.25684V52.2617C41.9129 52.263 37.7466 52.8067 38.1326 55.665C38.5185 58.521 41.9086 58.6042 41.9226 58.6045V60.7705C41.8942 60.7812 37.4291 62.4656 35.1931 60.4609C32.9503 58.45 33.3366 55.975 33.3367 55.124C33.3367 54.2732 33.4913 51.7206 31.8669 49.8643C30.2426 48.008 27.7678 47.0023 24.5193 46.8477C21.2707 46.693 18.2545 48.3951 16.7849 49.3232C15.3153 50.2514 11.7571 53.4996 10.4421 57.4443C10.0554 54.1184 11.5251 49.8643 11.5251 49.8643L8.66284 53.1904C8.66284 53.1904 8.81756 51.0249 9.04956 49.71C9.2816 48.395 10.365 45.3779 10.365 45.3779L8.66284 47.6982C8.66879 47.6588 9.5173 42.0424 10.5193 39.3447C11.5206 36.6489 13.8262 33.4931 13.8455 33.4668L9.90015 35.8643C9.90015 35.8643 11.0606 32.3835 12.4529 30.6045C13.8406 28.8313 15.9197 26.9043 15.9333 26.8916C15.9035 26.8686 13.9194 25.3327 13.4587 23.7207C12.9953 22.0987 12.84 18.4713 12.8396 18.4609L13.7683 19.3887C13.7541 19.3568 12.1416 15.7422 11.7566 13.124C11.3699 10.4943 11.4474 8.4832 11.6794 6.24023C11.9115 3.99714 12.9948 0.438498 13.7683 0.0517578ZM31.7898 35.8643C29.1909 34.2556 24.7774 35.6582 22.8953 36.5605C23.0761 36.6121 23.7156 36.7148 24.8289 36.7148C26.2209 36.7149 26.066 37.1018 26.1433 37.4111C26.2207 37.7205 25.9891 37.8751 27.5359 39.8086C29.0827 41.7422 31.7123 41.5102 33.3367 41.3555C34.961 41.2008 34.8845 40.9945 35.2712 41.2266C35.6582 41.4587 36.4311 41.9225 36.5857 42.0771C36.7405 42.2319 37.2804 42.6526 36.5857 41.2266C35.1161 38.21 35.0384 37.8753 31.7898 35.8643ZM14.7732 3.0166C12.3602 10.2563 16.475 20.3163 19.2595 23.9775C20.2393 22.8431 22.8644 20.2649 25.5251 19.0273C22.4935 17.3568 22.0445 14.6708 22.199 13.5361C23.3851 14.3097 26.0049 16.1343 26.9949 17.248C27.2424 17.6193 27.4585 18.0221 27.5359 18.1768C30.011 15.4696 27.3964 9.76135 14.7732 3.0166Z" fill="black"/>
<path d="M27.9227 37.5662C27.6906 36.1741 30.0884 36.0192 30.3205 36.7152C29.7791 37.6176 30.3205 39.4224 30.5525 39.4224C30.7845 39.4224 31.7901 39.2677 31.7127 38.0301C31.6354 36.7925 32.5636 37.7981 33.0276 38.1074C33.4917 38.4168 33.8785 38.8036 33.4144 39.4997C32.9503 40.1958 31.558 40.6078 30.0884 40.1958C28.6188 39.7839 28.1548 38.9584 27.9227 37.5662Z" fill="black"/>
</svg>
